<?xml version="1.0" encoding="utf-8"?>
<!DOCTYPE svg PUBLIC "-//W3C//DTD SVG 1.1//EN" "http://www.w3.org/Graphics/SVG/1.1/DTD/svg11.dtd">

<svg version="1.1" xmlns="http://www.w3.org/2000/svg" xmlns:xlink="http://www.w3.org/1999/xlink" x="0px" y="0px" viewBox="0 0 1000 1000" enable-background="new 0 0 1000 1000" xml:space="preserve">
<style>
path{
    fill: #5c9bff;
}
</style>
<g><path d="M598.3,559.9c-134.8,0-244.4-109.6-244.4-244.4c0-134.8,109.6-244.4,244.4-244.4c134.7,0,244.4,109.6,244.4,244.4C842.6,450.3,733,559.9,598.3,559.9z M598.3,117.9c-109,0-197.7,88.7-197.7,197.7c0,109,88.7,197.7,197.7,197.7c109,0,197.7-88.7,197.7-197.7C795.9,206.5,707.3,117.9,598.3,117.9z"/>
<path d="M966.7,928.8c-12.9,0-23.3-10.4-23.3-23.3c0-91.9-35.8-178.5-100.7-243.6c-9.1-9.1-9.1-23.9,0-33c9.1-9.1,23.9-9.1,33,0c73.8,74,114.4,172.2,114.4,276.6C990,918.4,979.6,928.8,966.7,928.8z M229.8,928.8c-12.9,0-23.3-10.4-23.3-23.3c0-216,175.7-391.7,391.7-391.7c0.7,0,1.8,0,2.5,0.1c12.4,1.1,22,11.8,21.4,24.3c-0.6,13.2-12.5,23.5-25.6,22.2C408,560.4,253.2,715.2,253.2,905.5C253.2,918.4,242.7,928.8,229.8,928.8z"/>
<path d="M328.1,542.4c-110.4,0-200.2-94.5-200.2-210.7c0-116.2,89.8-210.7,200.2-210.7c12.9,0,23.3,10.4,23.3,23.3c0,12.9-10.4,23.3-23.3,23.3c-84.7,0-153.5,73.6-153.5,164c0,90.4,68.9,164,153.5,164c12.9,0,23.3,10.4,23.3,23.3C351.4,532,341,542.4,328.1,542.4z"/>
<path d="M33.3,854.8c-12.9,0-23.3-10.4-23.3-23.3c0-185,142.7-335.6,318.1-335.6c12.9,0,23.3,10.4,23.3,23.3c0,12.9-10.4,23.3-23.3,23.3c-149.7,0-271.4,129.6-271.4,288.9C56.7,844.4,46.2,854.8,33.3,854.8z"/></g>
</svg>